%
M48
M72
T01C0.0236
T02C0.0276
T03C0.0315
T04C0.0320
T05C0.0400
T06C0.0748
%
T01
X2312Y10252
X2312Y11252
X5312Y16252
X5312Y16252
X9312Y14252
X9312Y14252
X10312Y11252
X10812Y7752
X12812Y5252
X12812Y4252
X12812Y2252
X16812Y2752
X16812Y4252
X16812Y1252
X17812Y11252
T02
X8812Y17252
X8812Y16252
X13312Y7252
X13312Y6252
T03
X2612Y16152
X3312Y16152
X3982Y16152
X3672Y16772
X2982Y16772
T04
X8312Y18752
X9312Y18752
X10812Y18252
X10812Y19252
X11812Y16752
X11312Y15252
X11312Y14252
X11312Y13252
X11312Y12252
X11312Y11252
X11312Y10252
X11312Y9252
X11312Y8252
X11312Y7252
X11312Y6252
X11312Y5252
X11312Y4252
X11312Y3252
X11312Y2252
X8312Y2252
X8312Y3252
X8312Y4252
X8312Y5252
X8312Y6252
X8312Y7252
X8312Y8252
X8312Y9252
X8312Y10252
X8312Y11252
X8312Y12252
X8312Y13252
X8312Y14252
X8312Y15252
X14312Y14752
X14312Y15752
X14812Y16752
X17812Y17252
X18812Y17252
X18812Y14252
X17812Y14252
X16312Y12752
X16312Y9752
X14812Y8252
X14812Y7252
X16312Y7252
X16312Y6252
X14812Y5252
X14812Y2252
X6312Y3252
X5312Y3252
T05
X1312Y1752
X1312Y2752
X1312Y3752
X1312Y4752
X1312Y5752
X1312Y6752
X1312Y7752
X1312Y8752
X1312Y10252
X1312Y11252
X1312Y12252
X1312Y13252
X5312Y8252
X5312Y7252
X5312Y6252
X4812Y1252
X3812Y1252
X2812Y1252
X5812Y1252
X6812Y1252
X18312Y1252
X18312Y2252
X18312Y3252
X18312Y4252
X18312Y5752
X18312Y6752
X18312Y7752
X18312Y8752
X18312Y18752
X17312Y18752
X16312Y18752
X14812Y18752
X13812Y18752
X12812Y18752
X6312Y18252
X6312Y17252
X6312Y16252
T06
X1875Y18252
X4749Y18252
M30
