G75*
G70*
%OFA0B0*%
%FSLAX24Y24*%
%IPPOS*%
%LPD*%
%AMOC8*
5,1,8,0,0,1.08239X$1,22.5*
%
%ADD10C,0.0000*%
%ADD11C,0.0600*%
%ADD12R,0.0820X0.0820*%
%ADD13C,0.0820*%
%ADD14OC8,0.0600*%
%ADD15R,0.0730X0.0730*%
%ADD16C,0.0730*%
%ADD17C,0.0680*%
%ADD18C,0.0595*%
%ADD19C,0.1202*%
%ADD20R,0.0476X0.0476*%
D10*
X000312Y000252D02*
X000312Y019937D01*
X019497Y019937D01*
X019497Y000252D01*
X000312Y000252D01*
D11*
X008052Y002252D02*
X008572Y002252D01*
X008572Y003252D02*
X008052Y003252D01*
X008052Y004252D02*
X008572Y004252D01*
X008572Y005252D02*
X008052Y005252D01*
X008052Y006252D02*
X008572Y006252D01*
X008572Y007252D02*
X008052Y007252D01*
X008052Y008252D02*
X008572Y008252D01*
X008572Y009252D02*
X008052Y009252D01*
X008052Y010252D02*
X008572Y010252D01*
X008572Y011252D02*
X008052Y011252D01*
X008052Y012252D02*
X008572Y012252D01*
X008572Y013252D02*
X008052Y013252D01*
X008052Y014252D02*
X008572Y014252D01*
X008572Y015252D02*
X008052Y015252D01*
X011052Y015252D02*
X011572Y015252D01*
X011572Y014252D02*
X011052Y014252D01*
X011052Y013252D02*
X011572Y013252D01*
X011572Y012252D02*
X011052Y012252D01*
X011052Y011252D02*
X011572Y011252D01*
X011572Y010252D02*
X011052Y010252D01*
X011052Y009252D02*
X011572Y009252D01*
X011572Y008252D02*
X011052Y008252D01*
X011052Y007252D02*
X011572Y007252D01*
X011572Y006252D02*
X011052Y006252D01*
X011052Y005252D02*
X011572Y005252D01*
X011572Y004252D02*
X011052Y004252D01*
X011052Y003252D02*
X011572Y003252D01*
X011572Y002252D02*
X011052Y002252D01*
D12*
X006812Y001252D03*
X005312Y006252D03*
X001312Y004752D03*
X001312Y008752D03*
X001312Y013252D03*
X012812Y018752D03*
X016312Y018752D03*
X018312Y008752D03*
X018312Y004252D03*
D13*
X018312Y003252D03*
X018312Y002252D03*
X018312Y001252D03*
X018312Y005752D03*
X018312Y006752D03*
X018312Y007752D03*
X018312Y018752D03*
X017312Y018752D03*
X014812Y018752D03*
X013812Y018752D03*
X005312Y008252D03*
X005312Y007252D03*
X001312Y006752D03*
X001312Y007752D03*
X001312Y005752D03*
X001312Y003752D03*
X001312Y002752D03*
X001312Y001752D03*
X002812Y001252D03*
X003812Y001252D03*
X004812Y001252D03*
X005812Y001252D03*
X001312Y010252D03*
X001312Y011252D03*
X001312Y012252D03*
D14*
X008312Y018752D03*
X009312Y018752D03*
X010812Y018252D03*
X010812Y019252D03*
X011812Y016752D03*
X014312Y015752D03*
X014812Y016752D03*
X014312Y014752D03*
X016312Y012752D03*
X017812Y014252D03*
X018812Y014252D03*
X018812Y017252D03*
X017812Y017252D03*
X016312Y009752D03*
X014812Y008252D03*
X014812Y007252D03*
X016312Y007252D03*
X016312Y006252D03*
X014812Y005252D03*
X014812Y002252D03*
X006312Y003252D03*
X005312Y003252D03*
D15*
X013312Y007252D03*
X008812Y017252D03*
D16*
X008812Y016252D03*
X013312Y006252D03*
D17*
X006612Y016252D02*
X006012Y016252D01*
X006012Y017252D02*
X006612Y017252D01*
X006612Y018252D02*
X006012Y018252D01*
D18*
X003982Y016152D03*
X003312Y016152D03*
X002612Y016152D03*
X002982Y016772D03*
X003672Y016772D03*
D19*
X004749Y018252D03*
X001875Y018252D03*
D20*
X005312Y016252D03*
X005312Y016252D03*
X009312Y014252D03*
X009312Y014252D03*
X010312Y011252D03*
X010812Y007752D03*
X012812Y005252D03*
X012812Y004252D03*
X012812Y002252D03*
X016812Y002752D03*
X016812Y004252D03*
X016812Y001252D03*
X017812Y011252D03*
X002312Y011252D03*
X002312Y010252D03*
M02*
