G75*
G70*
%OFA0B0*%
%FSLAX24Y24*%
%IPPOS*%
%LPD*%
%AMOC8*
5,1,8,0,0,1.08239X$1,22.5*
%
%ADD10C,0.0000*%
%ADD11C,0.0050*%
%ADD12C,0.0060*%
%ADD13C,0.0030*%
%ADD14C,0.0080*%
%ADD15C,0.0100*%
%ADD16C,0.0120*%
%ADD17C,0.0200*%
%ADD18R,0.0500X0.0750*%
%ADD19R,0.0300X0.0700*%
%ADD20R,0.0500X0.0300*%
%ADD21C,0.0040*%
%ADD22R,0.0200X0.0150*%
%ADD23R,0.0150X0.0200*%
D10*
X000312Y000252D02*
X000312Y019937D01*
X019497Y019937D01*
X019497Y000252D01*
X000312Y000252D01*
D11*
X004937Y004102D02*
X005012Y004027D01*
X005163Y004027D01*
X005238Y004102D01*
X005398Y004027D02*
X005698Y004027D01*
X005548Y004027D02*
X005548Y004477D01*
X005398Y004327D01*
X005238Y004402D02*
X005163Y004477D01*
X005012Y004477D01*
X004937Y004402D01*
X004937Y004102D01*
X009587Y009979D02*
X009587Y010204D01*
X009662Y010279D01*
X009812Y010279D01*
X009887Y010204D01*
X009887Y009979D01*
X010037Y009979D02*
X009587Y009979D01*
X009587Y010439D02*
X009587Y010589D01*
X009587Y010514D02*
X010037Y010514D01*
X010037Y010439D02*
X010037Y010589D01*
X009962Y010746D02*
X010037Y010821D01*
X010037Y010971D01*
X009962Y011046D01*
X010037Y011206D02*
X009737Y011506D01*
X009662Y011506D01*
X009587Y011431D01*
X009587Y011281D01*
X009662Y011206D01*
X009662Y011046D02*
X009587Y010971D01*
X009587Y010821D01*
X009662Y010746D01*
X009962Y010746D01*
X010037Y011206D02*
X010037Y011506D01*
X009962Y011666D02*
X009887Y011666D01*
X009812Y011741D01*
X009812Y011892D01*
X009887Y011967D01*
X009962Y011967D01*
X010037Y011892D01*
X010037Y011741D01*
X009962Y011666D01*
X009812Y011741D02*
X009737Y011666D01*
X009662Y011666D01*
X009587Y011741D01*
X009587Y011892D01*
X009662Y011967D01*
X009737Y011967D01*
X009812Y011892D01*
X013287Y014652D02*
X013362Y014577D01*
X013662Y014577D01*
X013737Y014652D01*
X013737Y014802D01*
X013662Y014877D01*
X013737Y015037D02*
X013437Y015338D01*
X013362Y015338D01*
X013287Y015262D01*
X013287Y015112D01*
X013362Y015037D01*
X013362Y014877D02*
X013287Y014802D01*
X013287Y014652D01*
X013737Y015037D02*
X013737Y015338D01*
X009908Y015877D02*
X009608Y015877D01*
X009758Y015877D02*
X009758Y016327D01*
X009608Y016177D01*
X009448Y016252D02*
X009373Y016327D01*
X009223Y016327D01*
X009148Y016252D01*
X009148Y016177D01*
X009223Y016102D01*
X009373Y016102D01*
X009448Y016027D01*
X009448Y015952D01*
X009373Y015877D01*
X009223Y015877D01*
X009148Y015952D01*
X008988Y015952D02*
X008913Y015877D01*
X008762Y015877D01*
X008687Y015952D01*
X008687Y016327D01*
X008988Y016327D02*
X008988Y015952D01*
X009298Y015802D02*
X009298Y016402D01*
X008823Y019327D02*
X008673Y019327D01*
X008598Y019402D01*
X008438Y019402D02*
X008363Y019327D01*
X008212Y019327D01*
X008137Y019402D01*
X008137Y019702D01*
X008212Y019777D01*
X008363Y019777D01*
X008438Y019702D01*
X008598Y019702D02*
X008673Y019777D01*
X008823Y019777D01*
X008898Y019702D01*
X008898Y019627D01*
X008823Y019552D01*
X008898Y019477D01*
X008898Y019402D01*
X008823Y019327D01*
X008823Y019552D02*
X008748Y019552D01*
X010187Y019527D02*
X010637Y019527D01*
X010637Y019827D01*
X010637Y019987D02*
X010637Y020288D01*
X010637Y020448D02*
X010637Y020673D01*
X010562Y020748D01*
X010262Y020748D01*
X010187Y020673D01*
X010187Y020448D01*
X010637Y020448D01*
X010412Y020137D02*
X010412Y019987D01*
X010187Y019987D02*
X010637Y019987D01*
X010187Y019987D02*
X010187Y020288D01*
X010262Y020908D02*
X010187Y020983D01*
X010187Y021133D01*
X010262Y021208D01*
X010337Y021208D01*
X010412Y021133D01*
X010487Y021208D01*
X010562Y021208D01*
X010637Y021133D01*
X010637Y020983D01*
X010562Y020908D01*
X010412Y021058D02*
X010412Y021133D01*
X014637Y010208D02*
X014637Y009908D01*
X014637Y010058D02*
X014187Y010058D01*
X014337Y009908D01*
X014262Y009748D02*
X014187Y009673D01*
X014187Y009448D01*
X014637Y009448D01*
X014637Y009673D01*
X014562Y009748D01*
X014262Y009748D01*
X014187Y009288D02*
X014187Y008987D01*
X014637Y008987D01*
X014637Y009288D01*
X014412Y009137D02*
X014412Y008987D01*
X014637Y008827D02*
X014637Y008527D01*
X014187Y008527D01*
X015687Y008448D02*
X015687Y008673D01*
X015762Y008748D01*
X016062Y008748D01*
X016137Y008673D01*
X016137Y008448D01*
X015687Y008448D01*
X015687Y008288D02*
X015687Y007987D01*
X016137Y007987D01*
X016137Y008288D01*
X015912Y008137D02*
X015912Y007987D01*
X016137Y007827D02*
X016137Y007527D01*
X015687Y007527D01*
X015762Y008908D02*
X015687Y008983D01*
X015687Y009133D01*
X015762Y009208D01*
X015837Y009208D01*
X016137Y008908D01*
X016137Y009208D01*
D12*
X016012Y010252D02*
X016612Y010252D01*
X016629Y010254D01*
X016646Y010258D01*
X016662Y010265D01*
X016676Y010275D01*
X016689Y010288D01*
X016699Y010302D01*
X016706Y010318D01*
X016710Y010335D01*
X016712Y010352D01*
X016712Y010502D01*
X016662Y010552D01*
X016662Y011952D01*
X016712Y012002D01*
X016712Y012152D01*
X016710Y012169D01*
X016706Y012186D01*
X016699Y012202D01*
X016689Y012216D01*
X016676Y012229D01*
X016662Y012239D01*
X016646Y012246D01*
X016629Y012250D01*
X016612Y012252D01*
X016012Y012252D01*
X015995Y012250D01*
X015978Y012246D01*
X015962Y012239D01*
X015948Y012229D01*
X015935Y012216D01*
X015925Y012202D01*
X015918Y012186D01*
X015914Y012169D01*
X015912Y012152D01*
X015912Y012002D01*
X015962Y011952D01*
X015962Y010552D01*
X015912Y010502D01*
X015912Y010352D01*
X015914Y010335D01*
X015918Y010318D01*
X015925Y010302D01*
X015935Y010288D01*
X015948Y010275D01*
X015962Y010265D01*
X015978Y010258D01*
X015995Y010254D01*
X016012Y010252D01*
X015412Y007752D02*
X015410Y007707D01*
X015405Y007661D01*
X015397Y007617D01*
X015385Y007573D01*
X015369Y007530D01*
X015351Y007488D01*
X015329Y007448D01*
X015305Y007410D01*
X015278Y007374D01*
X015248Y007339D01*
X015215Y007308D01*
X015180Y007278D01*
X015412Y007752D02*
X015410Y007797D01*
X015405Y007843D01*
X015397Y007887D01*
X015385Y007931D01*
X015369Y007974D01*
X015351Y008016D01*
X015329Y008056D01*
X015305Y008094D01*
X015278Y008130D01*
X015248Y008165D01*
X015215Y008196D01*
X015180Y008226D01*
X014212Y007752D02*
X014214Y007706D01*
X014219Y007660D01*
X014228Y007614D01*
X014240Y007569D01*
X014256Y007526D01*
X014275Y007484D01*
X014298Y007443D01*
X014323Y007404D01*
X014351Y007368D01*
X014382Y007333D01*
X014416Y007301D01*
X014452Y007272D01*
X014212Y007752D02*
X014214Y007799D01*
X014220Y007847D01*
X014229Y007893D01*
X014242Y007939D01*
X014258Y007983D01*
X014278Y008027D01*
X014302Y008068D01*
X014328Y008107D01*
X014358Y008144D01*
X014391Y008179D01*
X014426Y008211D01*
X014463Y008240D01*
X016912Y006752D02*
X016910Y006707D01*
X016905Y006661D01*
X016897Y006617D01*
X016885Y006573D01*
X016869Y006530D01*
X016851Y006488D01*
X016829Y006448D01*
X016805Y006410D01*
X016778Y006374D01*
X016748Y006339D01*
X016715Y006308D01*
X016680Y006278D01*
X016912Y006752D02*
X016910Y006797D01*
X016905Y006843D01*
X016897Y006887D01*
X016885Y006931D01*
X016869Y006974D01*
X016851Y007016D01*
X016829Y007056D01*
X016805Y007094D01*
X016778Y007130D01*
X016748Y007165D01*
X016715Y007196D01*
X016680Y007226D01*
X015712Y006752D02*
X015714Y006706D01*
X015719Y006660D01*
X015728Y006614D01*
X015740Y006569D01*
X015756Y006526D01*
X015775Y006484D01*
X015798Y006443D01*
X015823Y006404D01*
X015851Y006368D01*
X015882Y006333D01*
X015916Y006301D01*
X015952Y006272D01*
X015712Y006752D02*
X015714Y006799D01*
X015720Y006847D01*
X015729Y006893D01*
X015742Y006939D01*
X015758Y006983D01*
X015778Y007027D01*
X015802Y007068D01*
X015828Y007107D01*
X015858Y007144D01*
X015891Y007179D01*
X015926Y007211D01*
X015963Y007240D01*
X015112Y004752D02*
X014512Y004752D01*
X014495Y004750D01*
X014478Y004746D01*
X014462Y004739D01*
X014448Y004729D01*
X014435Y004716D01*
X014425Y004702D01*
X014418Y004686D01*
X014414Y004669D01*
X014412Y004652D01*
X014412Y004502D01*
X014462Y004452D01*
X014462Y003052D01*
X014412Y003002D01*
X014412Y002852D01*
X014414Y002835D01*
X014418Y002818D01*
X014425Y002802D01*
X014435Y002788D01*
X014448Y002775D01*
X014462Y002765D01*
X014478Y002758D01*
X014495Y002754D01*
X014512Y002752D01*
X015112Y002752D01*
X015129Y002754D01*
X015146Y002758D01*
X015162Y002765D01*
X015176Y002775D01*
X015189Y002788D01*
X015199Y002802D01*
X015206Y002818D01*
X015210Y002835D01*
X015212Y002852D01*
X015212Y003002D01*
X015162Y003052D01*
X015162Y004452D01*
X015212Y004502D01*
X015212Y004652D01*
X015210Y004669D01*
X015206Y004686D01*
X015199Y004702D01*
X015189Y004716D01*
X015176Y004729D01*
X015162Y004739D01*
X015146Y004746D01*
X015129Y004750D01*
X015112Y004752D01*
X010962Y001752D02*
X008662Y001752D01*
X008662Y015752D01*
X009412Y015752D01*
X009414Y015713D01*
X009420Y015674D01*
X009429Y015636D01*
X009442Y015599D01*
X009459Y015563D01*
X009479Y015530D01*
X009503Y015498D01*
X009529Y015469D01*
X009558Y015443D01*
X009590Y015419D01*
X009623Y015399D01*
X009659Y015382D01*
X009696Y015369D01*
X009734Y015360D01*
X009773Y015354D01*
X009812Y015352D01*
X009851Y015354D01*
X009890Y015360D01*
X009928Y015369D01*
X009965Y015382D01*
X010001Y015399D01*
X010034Y015419D01*
X010066Y015443D01*
X010095Y015469D01*
X010121Y015498D01*
X010145Y015530D01*
X010165Y015563D01*
X010182Y015599D01*
X010195Y015636D01*
X010204Y015674D01*
X010210Y015713D01*
X010212Y015752D01*
X010962Y015752D01*
X010962Y001752D01*
X006762Y002752D02*
X006762Y003752D01*
X006760Y003769D01*
X006756Y003786D01*
X006749Y003802D01*
X006739Y003816D01*
X006726Y003829D01*
X006712Y003839D01*
X006696Y003846D01*
X006679Y003850D01*
X006662Y003852D01*
X004962Y003852D01*
X004945Y003850D01*
X004928Y003846D01*
X004912Y003839D01*
X004898Y003829D01*
X004885Y003816D01*
X004875Y003802D01*
X004868Y003786D01*
X004864Y003769D01*
X004862Y003752D01*
X004862Y002752D01*
X004864Y002735D01*
X004868Y002718D01*
X004875Y002702D01*
X004885Y002688D01*
X004898Y002675D01*
X004912Y002665D01*
X004928Y002658D01*
X004945Y002654D01*
X004962Y002652D01*
X006662Y002652D01*
X006679Y002654D01*
X006696Y002658D01*
X006712Y002665D01*
X006726Y002675D01*
X006739Y002688D01*
X006749Y002702D01*
X006756Y002718D01*
X006760Y002735D01*
X006762Y002752D01*
X005962Y003252D02*
X005912Y003252D01*
X005712Y003252D02*
X005662Y003252D01*
X014062Y014402D02*
X014562Y014402D01*
X014588Y014404D01*
X014614Y014409D01*
X014639Y014417D01*
X014662Y014429D01*
X014684Y014443D01*
X014703Y014461D01*
X014721Y014480D01*
X014735Y014502D01*
X014747Y014525D01*
X014755Y014550D01*
X014760Y014576D01*
X014762Y014602D01*
X014762Y015902D01*
X014760Y015928D01*
X014755Y015954D01*
X014747Y015979D01*
X014735Y016002D01*
X014721Y016024D01*
X014703Y016043D01*
X014684Y016061D01*
X014662Y016075D01*
X014639Y016087D01*
X014614Y016095D01*
X014588Y016100D01*
X014562Y016102D01*
X014062Y016102D01*
X014036Y016100D01*
X014010Y016095D01*
X013985Y016087D01*
X013962Y016075D01*
X013940Y016061D01*
X013921Y016043D01*
X013903Y016024D01*
X013889Y016002D01*
X013877Y015979D01*
X013869Y015954D01*
X013864Y015928D01*
X013862Y015902D01*
X013862Y014602D01*
X013864Y014576D01*
X013869Y014550D01*
X013877Y014525D01*
X013889Y014502D01*
X013903Y014480D01*
X013921Y014461D01*
X013940Y014443D01*
X013962Y014429D01*
X013985Y014417D01*
X014010Y014409D01*
X014036Y014404D01*
X014062Y014402D01*
X014062Y016352D02*
X014212Y016352D01*
X014229Y016354D01*
X014246Y016358D01*
X014262Y016365D01*
X014276Y016375D01*
X014289Y016388D01*
X014299Y016402D01*
X014306Y016418D01*
X014310Y016435D01*
X014312Y016452D01*
X014312Y017052D01*
X014310Y017069D01*
X014306Y017086D01*
X014299Y017102D01*
X014289Y017116D01*
X014276Y017129D01*
X014262Y017139D01*
X014246Y017146D01*
X014229Y017150D01*
X014212Y017152D01*
X014062Y017152D01*
X014012Y017102D01*
X012612Y017102D01*
X012562Y017152D01*
X012412Y017152D01*
X012395Y017150D01*
X012378Y017146D01*
X012362Y017139D01*
X012348Y017129D01*
X012335Y017116D01*
X012325Y017102D01*
X012318Y017086D01*
X012314Y017069D01*
X012312Y017052D01*
X012312Y016452D01*
X012314Y016435D01*
X012318Y016418D01*
X012325Y016402D01*
X012335Y016388D01*
X012348Y016375D01*
X012362Y016365D01*
X012378Y016358D01*
X012395Y016354D01*
X012412Y016352D01*
X012562Y016352D01*
X012612Y016402D01*
X014012Y016402D01*
X014062Y016352D01*
X011180Y018278D02*
X011215Y018308D01*
X011248Y018339D01*
X011278Y018374D01*
X011305Y018410D01*
X011329Y018448D01*
X011351Y018488D01*
X011369Y018530D01*
X011385Y018573D01*
X011397Y018617D01*
X011405Y018661D01*
X011410Y018707D01*
X011412Y018752D01*
X011410Y018797D01*
X011405Y018843D01*
X011397Y018887D01*
X011385Y018931D01*
X011369Y018974D01*
X011351Y019016D01*
X011329Y019056D01*
X011305Y019094D01*
X011278Y019130D01*
X011248Y019165D01*
X011215Y019196D01*
X011180Y019226D01*
X010212Y018752D02*
X010214Y018706D01*
X010219Y018660D01*
X010228Y018614D01*
X010240Y018569D01*
X010256Y018526D01*
X010275Y018484D01*
X010298Y018443D01*
X010323Y018404D01*
X010351Y018368D01*
X010382Y018333D01*
X010416Y018301D01*
X010452Y018272D01*
X010212Y018752D02*
X010214Y018799D01*
X010220Y018847D01*
X010229Y018893D01*
X010242Y018939D01*
X010258Y018983D01*
X010278Y019027D01*
X010302Y019068D01*
X010328Y019107D01*
X010358Y019144D01*
X010391Y019179D01*
X010426Y019211D01*
X010463Y019240D01*
X009662Y019002D02*
X009662Y018502D01*
X009660Y018476D01*
X009655Y018450D01*
X009647Y018425D01*
X009635Y018402D01*
X009621Y018380D01*
X009603Y018361D01*
X009584Y018343D01*
X009562Y018329D01*
X009539Y018317D01*
X009514Y018309D01*
X009488Y018304D01*
X009462Y018302D01*
X008162Y018302D01*
X008136Y018304D01*
X008110Y018309D01*
X008085Y018317D01*
X008062Y018329D01*
X008040Y018343D01*
X008021Y018361D01*
X008003Y018380D01*
X007989Y018402D01*
X007977Y018425D01*
X007969Y018450D01*
X007964Y018476D01*
X007962Y018502D01*
X007962Y019002D01*
X007964Y019028D01*
X007969Y019054D01*
X007977Y019079D01*
X007989Y019102D01*
X008003Y019124D01*
X008021Y019143D01*
X008040Y019161D01*
X008062Y019175D01*
X008085Y019187D01*
X008110Y019195D01*
X008136Y019200D01*
X008162Y019202D01*
X009462Y019202D01*
X009488Y019200D01*
X009514Y019195D01*
X009539Y019187D01*
X009562Y019175D01*
X009584Y019161D01*
X009603Y019143D01*
X009621Y019124D01*
X009635Y019102D01*
X009647Y019079D01*
X009655Y019054D01*
X009660Y019028D01*
X009662Y019002D01*
X007012Y019152D02*
X007012Y015352D01*
X006912Y015252D01*
X005762Y015252D01*
X007012Y019152D02*
X006912Y019252D01*
X005762Y019252D01*
X017412Y016652D02*
X017412Y016502D01*
X017462Y016452D01*
X017462Y015052D01*
X017412Y015002D01*
X017412Y014852D01*
X017414Y014835D01*
X017418Y014818D01*
X017425Y014802D01*
X017435Y014788D01*
X017448Y014775D01*
X017462Y014765D01*
X017478Y014758D01*
X017495Y014754D01*
X017512Y014752D01*
X018112Y014752D01*
X018129Y014754D01*
X018146Y014758D01*
X018162Y014765D01*
X018176Y014775D01*
X018189Y014788D01*
X018199Y014802D01*
X018206Y014818D01*
X018210Y014835D01*
X018212Y014852D01*
X018212Y015002D01*
X018162Y015052D01*
X018162Y016452D01*
X018212Y016502D01*
X018212Y016652D01*
X018210Y016669D01*
X018206Y016686D01*
X018199Y016702D01*
X018189Y016716D01*
X018176Y016729D01*
X018162Y016739D01*
X018146Y016746D01*
X018129Y016750D01*
X018112Y016752D01*
X017512Y016752D01*
X017495Y016750D01*
X017478Y016746D01*
X017462Y016739D01*
X017448Y016729D01*
X017435Y016716D01*
X017425Y016702D01*
X017418Y016686D01*
X017414Y016669D01*
X017412Y016652D01*
X018412Y016652D02*
X018412Y016502D01*
X018462Y016452D01*
X018462Y015052D01*
X018412Y015002D01*
X018412Y014852D01*
X018414Y014835D01*
X018418Y014818D01*
X018425Y014802D01*
X018435Y014788D01*
X018448Y014775D01*
X018462Y014765D01*
X018478Y014758D01*
X018495Y014754D01*
X018512Y014752D01*
X019112Y014752D01*
X019129Y014754D01*
X019146Y014758D01*
X019162Y014765D01*
X019176Y014775D01*
X019189Y014788D01*
X019199Y014802D01*
X019206Y014818D01*
X019210Y014835D01*
X019212Y014852D01*
X019212Y015002D01*
X019162Y015052D01*
X019162Y016452D01*
X019212Y016502D01*
X019212Y016652D01*
X019210Y016669D01*
X019206Y016686D01*
X019199Y016702D01*
X019189Y016716D01*
X019176Y016729D01*
X019162Y016739D01*
X019146Y016746D01*
X019129Y016750D01*
X019112Y016752D01*
X018512Y016752D01*
X018495Y016750D01*
X018478Y016746D01*
X018462Y016739D01*
X018448Y016729D01*
X018435Y016716D01*
X018425Y016702D01*
X018418Y016686D01*
X018414Y016669D01*
X018412Y016652D01*
D13*
X018479Y017767D02*
X018479Y018057D01*
X018673Y017767D01*
X018673Y018057D01*
X018774Y018009D02*
X018822Y018057D01*
X018919Y018057D01*
X018967Y018009D01*
X018967Y017960D01*
X018774Y017767D01*
X018967Y017767D01*
X018378Y017815D02*
X018378Y018009D01*
X018330Y018057D01*
X018233Y018057D01*
X018185Y018009D01*
X018185Y017815D01*
X018233Y017767D01*
X018330Y017767D01*
X018378Y017815D01*
X018083Y018057D02*
X017890Y018057D01*
X017987Y018057D02*
X017987Y017767D01*
X017692Y017767D02*
X017692Y018057D01*
X017595Y018057D02*
X017789Y018057D01*
X017494Y018057D02*
X017494Y017815D01*
X017446Y017767D01*
X017349Y017767D01*
X017301Y017815D01*
X017301Y018057D01*
X017199Y018009D02*
X017199Y017960D01*
X017151Y017912D01*
X017006Y017912D01*
X016905Y017912D02*
X016711Y017912D01*
X016610Y017864D02*
X016610Y017815D01*
X016562Y017767D01*
X016465Y017767D01*
X016417Y017815D01*
X016316Y017815D02*
X016316Y018057D01*
X016417Y018009D02*
X016417Y017960D01*
X016465Y017912D01*
X016562Y017912D01*
X016610Y017864D01*
X016711Y017767D02*
X016711Y018057D01*
X016610Y018009D02*
X016562Y018057D01*
X016465Y018057D01*
X016417Y018009D01*
X016316Y017815D02*
X016267Y017767D01*
X016170Y017767D01*
X016122Y017815D01*
X016122Y018057D01*
X016021Y018009D02*
X016021Y017912D01*
X015973Y017864D01*
X015827Y017864D01*
X015827Y017767D02*
X015827Y018057D01*
X015973Y018057D01*
X016021Y018009D01*
X015467Y018009D02*
X015419Y018057D01*
X015322Y018057D01*
X015274Y018009D01*
X015173Y018057D02*
X015173Y017767D01*
X014979Y018057D01*
X014979Y017767D01*
X014878Y017815D02*
X014878Y018009D01*
X014830Y018057D01*
X014733Y018057D01*
X014685Y018009D01*
X014685Y017815D01*
X014733Y017767D01*
X014830Y017767D01*
X014878Y017815D01*
X014583Y018057D02*
X014390Y018057D01*
X014487Y018057D02*
X014487Y017767D01*
X014289Y018057D02*
X014095Y018057D01*
X014192Y018057D02*
X014192Y017767D01*
X013994Y017815D02*
X013994Y018057D01*
X013801Y018057D02*
X013801Y017815D01*
X013849Y017767D01*
X013946Y017767D01*
X013994Y017815D01*
X013699Y017815D02*
X013651Y017767D01*
X013506Y017767D01*
X013506Y018057D01*
X013651Y018057D01*
X013699Y018009D01*
X013699Y017960D01*
X013651Y017912D01*
X013506Y017912D01*
X013405Y017912D02*
X013211Y017912D01*
X013110Y017864D02*
X013110Y017815D01*
X013062Y017767D01*
X012965Y017767D01*
X012917Y017815D01*
X012816Y017815D02*
X012816Y018057D01*
X012917Y018009D02*
X012917Y017960D01*
X012965Y017912D01*
X013062Y017912D01*
X013110Y017864D01*
X013211Y017767D02*
X013211Y018057D01*
X013110Y018009D02*
X013062Y018057D01*
X012965Y018057D01*
X012917Y018009D01*
X012816Y017815D02*
X012767Y017767D01*
X012670Y017767D01*
X012622Y017815D01*
X012622Y018057D01*
X012521Y018009D02*
X012521Y017912D01*
X012473Y017864D01*
X012327Y017864D01*
X012327Y017767D02*
X012327Y018057D01*
X012473Y018057D01*
X012521Y018009D01*
X013405Y018057D02*
X013405Y017767D01*
X013651Y017912D02*
X013699Y017864D01*
X013699Y017815D01*
X015274Y017767D02*
X015467Y017960D01*
X015467Y018009D01*
X015467Y017767D02*
X015274Y017767D01*
X016905Y017767D02*
X016905Y018057D01*
X017006Y018057D02*
X017006Y017767D01*
X017151Y017767D01*
X017199Y017815D01*
X017199Y017864D01*
X017151Y017912D01*
X017199Y018009D02*
X017151Y018057D01*
X017006Y018057D01*
X016532Y019487D02*
X016580Y019535D01*
X016580Y019584D01*
X016532Y019632D01*
X016387Y019632D01*
X016387Y019535D01*
X016435Y019487D01*
X016532Y019487D01*
X016387Y019632D02*
X016483Y019729D01*
X016580Y019777D01*
X016286Y019729D02*
X016237Y019777D01*
X016140Y019777D01*
X016092Y019729D01*
X016092Y019680D01*
X016140Y019632D01*
X016237Y019632D01*
X016286Y019584D01*
X016286Y019535D01*
X016237Y019487D01*
X016140Y019487D01*
X016092Y019535D01*
X015991Y019535D02*
X015991Y019777D01*
X015797Y019777D02*
X015797Y019535D01*
X015846Y019487D01*
X015943Y019487D01*
X015991Y019535D01*
X016189Y019439D02*
X016189Y019826D01*
X013080Y019729D02*
X013032Y019777D01*
X012935Y019777D01*
X012887Y019729D01*
X012786Y019729D02*
X012737Y019777D01*
X012640Y019777D01*
X012592Y019729D01*
X012592Y019680D01*
X012640Y019632D01*
X012737Y019632D01*
X012786Y019584D01*
X012786Y019535D01*
X012737Y019487D01*
X012640Y019487D01*
X012592Y019535D01*
X012491Y019535D02*
X012491Y019777D01*
X012297Y019777D02*
X012297Y019535D01*
X012346Y019487D01*
X012443Y019487D01*
X012491Y019535D01*
X012689Y019439D02*
X012689Y019826D01*
X012887Y019487D02*
X013080Y019680D01*
X013080Y019729D01*
X013080Y019487D02*
X012887Y019487D01*
X010247Y017978D02*
X010247Y017785D01*
X009957Y017785D01*
X010006Y017684D02*
X009957Y017635D01*
X009957Y017539D01*
X010006Y017490D01*
X010199Y017490D01*
X010247Y017539D01*
X010247Y017635D01*
X010199Y017684D01*
X010006Y017684D01*
X010006Y017389D02*
X009957Y017341D01*
X009957Y017196D01*
X010247Y017196D01*
X010151Y017196D02*
X010151Y017341D01*
X010102Y017389D01*
X010006Y017389D01*
X010296Y017094D02*
X010296Y016901D01*
X010151Y016751D02*
X010151Y016606D01*
X010247Y016606D02*
X009957Y016606D01*
X009957Y016751D01*
X010006Y016800D01*
X010102Y016800D01*
X010151Y016751D01*
X010102Y016505D02*
X010102Y016312D01*
X010054Y016312D02*
X009957Y016408D01*
X010054Y016505D01*
X010247Y016505D01*
X010247Y016312D02*
X010054Y016312D01*
X010006Y016210D02*
X009957Y016162D01*
X009957Y016065D01*
X010006Y016017D01*
X010199Y016017D01*
X010247Y016065D01*
X010247Y016162D01*
X010199Y016210D01*
X008047Y016248D02*
X007757Y016248D01*
X007854Y016151D01*
X007697Y016062D02*
X007649Y016110D01*
X007407Y016110D01*
X007451Y016050D02*
X007499Y016050D01*
X007547Y016001D01*
X007547Y015905D01*
X007499Y015856D01*
X007451Y015856D01*
X007402Y015905D01*
X007402Y016001D01*
X007451Y016050D01*
X007402Y016001D02*
X007354Y016050D01*
X007306Y016050D01*
X007257Y016001D01*
X007257Y015905D01*
X007306Y015856D01*
X007354Y015856D01*
X007402Y015905D01*
X007407Y015917D02*
X007649Y015917D01*
X007697Y015965D01*
X007697Y016062D01*
X007757Y015953D02*
X008047Y015953D01*
X008047Y015856D02*
X008047Y016050D01*
X008047Y016151D02*
X008047Y016344D01*
X008047Y016446D02*
X008047Y016639D01*
X008047Y016542D02*
X007757Y016542D01*
X007854Y016446D01*
X007697Y016506D02*
X007649Y016506D01*
X007456Y016700D01*
X007407Y016700D01*
X007407Y016506D01*
X007456Y016405D02*
X007407Y016357D01*
X007407Y016260D01*
X007456Y016212D01*
X007504Y016212D01*
X007552Y016260D01*
X007552Y016357D01*
X007601Y016405D01*
X007649Y016405D01*
X007697Y016357D01*
X007697Y016260D01*
X007649Y016212D01*
X007746Y016308D02*
X007359Y016308D01*
X007757Y015953D02*
X007854Y015856D01*
X007806Y015755D02*
X007757Y015707D01*
X007757Y015562D01*
X008047Y015562D01*
X008047Y015707D01*
X007999Y015755D01*
X007806Y015755D01*
X007596Y015658D02*
X007209Y015658D01*
X007257Y015610D02*
X007257Y015707D01*
X007306Y015755D01*
X007402Y015707D02*
X007402Y015610D01*
X007354Y015562D01*
X007306Y015562D01*
X007257Y015610D01*
X007257Y015460D02*
X007499Y015460D01*
X007547Y015412D01*
X007547Y015315D01*
X007499Y015267D01*
X007257Y015267D01*
X007499Y015562D02*
X007547Y015610D01*
X007547Y015707D01*
X007499Y015755D01*
X007451Y015755D01*
X007402Y015707D01*
X007757Y015267D02*
X008047Y015267D01*
X008047Y015460D01*
X007999Y016740D02*
X008047Y016740D01*
X007999Y016740D02*
X007806Y016934D01*
X007757Y016934D01*
X007757Y016740D01*
X002337Y013647D02*
X002337Y013551D01*
X002289Y013502D01*
X002337Y013401D02*
X002337Y013208D01*
X002337Y013304D02*
X002047Y013304D01*
X002144Y013208D01*
X002096Y013106D02*
X002047Y013058D01*
X002047Y012961D01*
X002096Y012913D01*
X002144Y012913D01*
X002192Y012961D01*
X002192Y013058D01*
X002241Y013106D01*
X002289Y013106D01*
X002337Y013058D01*
X002337Y012961D01*
X002289Y012913D01*
X002289Y012812D02*
X002047Y012812D01*
X002047Y012618D02*
X002289Y012618D01*
X002337Y012667D01*
X002337Y012764D01*
X002289Y012812D01*
X002386Y013010D02*
X001999Y013010D01*
X002096Y013502D02*
X002047Y013551D01*
X002047Y013647D01*
X002096Y013696D01*
X002144Y013696D01*
X002192Y013647D01*
X002241Y013696D01*
X002289Y013696D01*
X002337Y013647D01*
X002192Y013647D02*
X002192Y013599D01*
X000617Y013666D02*
X000521Y013569D01*
X000521Y013617D02*
X000521Y013472D01*
X000617Y013472D02*
X000327Y013472D01*
X000327Y013617D01*
X000376Y013666D01*
X000472Y013666D01*
X000521Y013617D01*
X000617Y013371D02*
X000617Y013178D01*
X000327Y013178D01*
X000327Y013371D01*
X000472Y013274D02*
X000472Y013178D01*
X000376Y013076D02*
X000327Y013028D01*
X000327Y012883D01*
X000617Y012883D01*
X000617Y013028D01*
X000569Y013076D01*
X000376Y013076D01*
X000424Y012782D02*
X000617Y012782D01*
X000472Y012782D02*
X000472Y012588D01*
X000424Y012588D02*
X000327Y012685D01*
X000424Y012782D01*
X000424Y012588D02*
X000617Y012588D01*
X000617Y012487D02*
X000617Y012294D01*
X000327Y012294D01*
X000327Y012487D01*
X000472Y012390D02*
X000472Y012294D01*
X000472Y012193D02*
X000472Y011999D01*
X000617Y011999D02*
X000327Y011999D01*
X000327Y012193D02*
X000617Y012193D01*
X000666Y011898D02*
X000666Y011704D01*
X000617Y011555D02*
X000327Y011555D01*
X000472Y011410D01*
X000472Y011603D01*
X000376Y011309D02*
X000569Y011115D01*
X000617Y011163D01*
X000617Y011260D01*
X000569Y011309D01*
X000376Y011309D01*
X000327Y011260D01*
X000327Y011163D01*
X000376Y011115D01*
X000569Y011115D01*
X000617Y011014D02*
X000327Y010820D01*
X000327Y011014D02*
X000617Y010820D01*
X000617Y010719D02*
X000617Y010526D01*
X000617Y010623D02*
X000327Y010623D01*
X000424Y010526D01*
X000376Y009166D02*
X000472Y009166D01*
X000521Y009117D01*
X000521Y008972D01*
X000617Y008972D02*
X000327Y008972D01*
X000327Y009117D01*
X000376Y009166D01*
X000521Y009069D02*
X000617Y009166D01*
X000617Y008871D02*
X000617Y008678D01*
X000327Y008678D01*
X000327Y008871D01*
X000472Y008774D02*
X000472Y008678D01*
X000376Y008576D02*
X000327Y008528D01*
X000327Y008383D01*
X000617Y008383D01*
X000617Y008528D01*
X000569Y008576D01*
X000376Y008576D01*
X000424Y008282D02*
X000617Y008282D01*
X000472Y008282D02*
X000472Y008088D01*
X000424Y008088D02*
X000327Y008185D01*
X000424Y008282D01*
X000424Y008088D02*
X000617Y008088D01*
X000617Y007987D02*
X000617Y007794D01*
X000327Y007794D01*
X000327Y007987D01*
X000472Y007890D02*
X000472Y007794D01*
X000472Y007693D02*
X000472Y007499D01*
X000617Y007499D02*
X000327Y007499D01*
X000327Y007693D02*
X000617Y007693D01*
X000666Y007398D02*
X000666Y007204D01*
X000617Y007055D02*
X000327Y007055D01*
X000472Y006910D01*
X000472Y007103D01*
X000376Y006809D02*
X000569Y006615D01*
X000617Y006663D01*
X000617Y006760D01*
X000569Y006809D01*
X000376Y006809D01*
X000327Y006760D01*
X000327Y006663D01*
X000376Y006615D01*
X000569Y006615D01*
X000617Y006514D02*
X000327Y006320D01*
X000327Y006514D02*
X000617Y006320D01*
X000617Y006219D02*
X000617Y006026D01*
X000617Y006123D02*
X000327Y006123D01*
X000424Y006026D01*
X000376Y005166D02*
X000472Y005166D01*
X000521Y005117D01*
X000521Y004972D01*
X000617Y004972D02*
X000327Y004972D01*
X000327Y005117D01*
X000376Y005166D01*
X000521Y005069D02*
X000617Y005166D01*
X000617Y004871D02*
X000617Y004678D01*
X000327Y004678D01*
X000327Y004871D01*
X000472Y004774D02*
X000472Y004678D01*
X000569Y004576D02*
X000376Y004576D01*
X000327Y004528D01*
X000327Y004383D01*
X000617Y004383D01*
X000617Y004528D01*
X000569Y004576D01*
X000617Y004282D02*
X000424Y004282D01*
X000327Y004185D01*
X000424Y004088D01*
X000617Y004088D01*
X000617Y003987D02*
X000617Y003794D01*
X000327Y003794D01*
X000327Y003987D01*
X000472Y003890D02*
X000472Y003794D01*
X000472Y003693D02*
X000472Y003499D01*
X000617Y003499D02*
X000327Y003499D01*
X000327Y003693D02*
X000617Y003693D01*
X000472Y004088D02*
X000472Y004282D01*
X000666Y003398D02*
X000666Y003204D01*
X000617Y003055D02*
X000327Y003055D01*
X000472Y002910D01*
X000472Y003103D01*
X000376Y002809D02*
X000569Y002615D01*
X000617Y002663D01*
X000617Y002760D01*
X000569Y002809D01*
X000376Y002809D01*
X000327Y002760D01*
X000327Y002663D01*
X000376Y002615D01*
X000569Y002615D01*
X000617Y002514D02*
X000327Y002320D01*
X000327Y002514D02*
X000617Y002320D01*
X000617Y002219D02*
X000617Y002026D01*
X000617Y002123D02*
X000327Y002123D01*
X000424Y002026D01*
X002047Y004118D02*
X002289Y004118D01*
X002337Y004167D01*
X002337Y004264D01*
X002289Y004312D01*
X002047Y004312D01*
X002096Y004413D02*
X002047Y004461D01*
X002047Y004558D01*
X002096Y004606D01*
X002192Y004558D02*
X002192Y004461D01*
X002144Y004413D01*
X002096Y004413D01*
X001999Y004510D02*
X002386Y004510D01*
X002337Y004558D02*
X002337Y004461D01*
X002289Y004413D01*
X002337Y004558D02*
X002289Y004606D01*
X002241Y004606D01*
X002192Y004558D01*
X002144Y004708D02*
X002047Y004804D01*
X002337Y004804D01*
X002337Y004708D02*
X002337Y004901D01*
X002337Y005002D02*
X002289Y005002D01*
X002096Y005196D01*
X002047Y005196D01*
X002047Y005002D01*
X004287Y005737D02*
X004529Y005737D01*
X004577Y005785D01*
X004577Y005882D01*
X004529Y005930D01*
X004287Y005930D01*
X004336Y006032D02*
X004287Y006080D01*
X004287Y006177D01*
X004336Y006225D01*
X004336Y006326D02*
X004287Y006375D01*
X004287Y006471D01*
X004336Y006520D01*
X004384Y006520D01*
X004432Y006471D01*
X004481Y006520D01*
X004529Y006520D01*
X004577Y006471D01*
X004577Y006375D01*
X004529Y006326D01*
X004529Y006225D02*
X004481Y006225D01*
X004432Y006177D01*
X004432Y006080D01*
X004384Y006032D01*
X004336Y006032D01*
X004239Y006128D02*
X004626Y006128D01*
X004577Y006080D02*
X004529Y006032D01*
X004577Y006080D02*
X004577Y006177D01*
X004529Y006225D01*
X004432Y006423D02*
X004432Y006471D01*
X006007Y006550D02*
X006297Y006550D01*
X006297Y006651D02*
X006297Y006844D01*
X006297Y006651D02*
X006249Y006651D01*
X006056Y006844D01*
X006007Y006844D01*
X006007Y006651D01*
X006152Y006550D02*
X006152Y006356D01*
X006297Y006356D02*
X006007Y006356D01*
X006007Y006255D02*
X006297Y006255D01*
X006297Y006062D02*
X006007Y006062D01*
X006104Y006158D01*
X006007Y006255D01*
X006056Y005960D02*
X006104Y005960D01*
X006152Y005912D01*
X006152Y005815D01*
X006104Y005767D01*
X006056Y005767D01*
X006007Y005815D01*
X006007Y005912D01*
X006056Y005960D01*
X006152Y005912D02*
X006201Y005960D01*
X006249Y005960D01*
X006297Y005912D01*
X006297Y005815D01*
X006249Y005767D01*
X006201Y005767D01*
X006152Y005815D01*
X006246Y002237D02*
X006342Y002140D01*
X006342Y001947D01*
X006443Y001947D02*
X006443Y002237D01*
X006589Y002237D01*
X006637Y002189D01*
X006637Y001995D01*
X006589Y001947D01*
X006443Y001947D01*
X006342Y002092D02*
X006149Y002092D01*
X006149Y002140D02*
X006246Y002237D01*
X006149Y002140D02*
X006149Y001947D01*
X006048Y001947D02*
X005854Y001947D01*
X005854Y002237D01*
X006048Y002237D01*
X005951Y002092D02*
X005854Y002092D01*
X005753Y002092D02*
X005560Y002092D01*
X005560Y001947D02*
X005560Y002237D01*
X005753Y002237D02*
X005753Y001947D01*
X005458Y001899D02*
X005265Y001899D01*
X005164Y001995D02*
X005115Y001947D01*
X005019Y001947D01*
X004970Y001995D01*
X004970Y002092D02*
X005067Y002140D01*
X005115Y002140D01*
X005164Y002092D01*
X005164Y001995D01*
X004970Y002092D02*
X004970Y002237D01*
X005164Y002237D01*
X004869Y002189D02*
X004869Y001995D01*
X004821Y001947D01*
X004724Y001947D01*
X004676Y001995D01*
X004869Y002189D01*
X004821Y002237D01*
X004724Y002237D01*
X004676Y002189D01*
X004676Y001995D01*
X004574Y001947D02*
X004381Y002237D01*
X004574Y002237D02*
X004381Y001947D01*
X004280Y001947D02*
X004086Y001947D01*
X004183Y001947D02*
X004183Y002237D01*
X004086Y002140D01*
X006179Y000517D02*
X006179Y000275D01*
X006227Y000227D01*
X006324Y000227D01*
X006372Y000275D01*
X006372Y000517D01*
X006474Y000469D02*
X006474Y000420D01*
X006522Y000372D01*
X006619Y000372D01*
X006667Y000324D01*
X006667Y000275D01*
X006619Y000227D01*
X006522Y000227D01*
X006474Y000275D01*
X006570Y000179D02*
X006570Y000566D01*
X006522Y000517D02*
X006619Y000517D01*
X006667Y000469D01*
X006768Y000420D02*
X006865Y000517D01*
X006865Y000227D01*
X006768Y000227D02*
X006962Y000227D01*
X007063Y000227D02*
X007256Y000420D01*
X007256Y000469D01*
X007208Y000517D01*
X007111Y000517D01*
X007063Y000469D01*
X007063Y000227D02*
X007256Y000227D01*
X006522Y000517D02*
X006474Y000469D01*
X006738Y001947D02*
X006932Y001947D01*
X007033Y001947D02*
X007033Y002237D01*
X007178Y002237D01*
X007226Y002189D01*
X007226Y002092D01*
X007178Y002044D01*
X007033Y002044D01*
X007129Y002044D02*
X007226Y001947D01*
X006932Y002237D02*
X006738Y002237D01*
X006738Y001947D01*
X006738Y002092D02*
X006835Y002092D01*
X011907Y005917D02*
X012149Y005917D01*
X012197Y005965D01*
X012197Y006062D01*
X012149Y006110D01*
X011907Y006110D01*
X011956Y006212D02*
X011907Y006260D01*
X011907Y006357D01*
X011956Y006405D01*
X012052Y006357D02*
X012052Y006260D01*
X012004Y006212D01*
X011956Y006212D01*
X011859Y006308D02*
X012246Y006308D01*
X012197Y006260D02*
X012149Y006212D01*
X012197Y006260D02*
X012197Y006357D01*
X012149Y006405D01*
X012101Y006405D01*
X012052Y006357D01*
X012052Y006506D02*
X011907Y006651D01*
X012197Y006651D01*
X012052Y006700D02*
X012052Y006506D01*
X014457Y006408D02*
X014554Y006505D01*
X014747Y006505D01*
X014747Y006606D02*
X014457Y006606D01*
X014457Y006751D01*
X014506Y006800D01*
X014602Y006800D01*
X014651Y006751D01*
X014651Y006606D01*
X014602Y006505D02*
X014602Y006312D01*
X014554Y006312D02*
X014747Y006312D01*
X014699Y006210D02*
X014747Y006162D01*
X014747Y006065D01*
X014699Y006017D01*
X014506Y006017D01*
X014457Y006065D01*
X014457Y006162D01*
X014506Y006210D01*
X014554Y006312D02*
X014457Y006408D01*
X014796Y006901D02*
X014796Y007094D01*
X014747Y007196D02*
X014457Y007196D01*
X014457Y007341D01*
X014506Y007389D01*
X014602Y007389D01*
X014651Y007341D01*
X014651Y007196D01*
X014699Y007490D02*
X014506Y007490D01*
X014457Y007539D01*
X014457Y007635D01*
X014506Y007684D01*
X014699Y007684D01*
X014747Y007635D01*
X014747Y007539D01*
X014699Y007490D01*
X014747Y007785D02*
X014457Y007785D01*
X014747Y007785D02*
X014747Y007978D01*
X017327Y007987D02*
X017327Y007794D01*
X017617Y007794D01*
X017617Y007987D01*
X017617Y008088D02*
X017424Y008088D01*
X017327Y008185D01*
X017424Y008282D01*
X017617Y008282D01*
X017617Y008383D02*
X017617Y008528D01*
X017569Y008576D01*
X017376Y008576D01*
X017327Y008528D01*
X017327Y008383D01*
X017617Y008383D01*
X017472Y008282D02*
X017472Y008088D01*
X017472Y007890D02*
X017472Y007794D01*
X017472Y007693D02*
X017472Y007499D01*
X017617Y007499D02*
X017327Y007499D01*
X017327Y007693D02*
X017617Y007693D01*
X017666Y007398D02*
X017666Y007204D01*
X017617Y007055D02*
X017327Y007055D01*
X017472Y006910D01*
X017472Y007103D01*
X017376Y006809D02*
X017569Y006615D01*
X017617Y006663D01*
X017617Y006760D01*
X017569Y006809D01*
X017376Y006809D01*
X017327Y006760D01*
X017327Y006663D01*
X017376Y006615D01*
X017569Y006615D01*
X017617Y006514D02*
X017327Y006320D01*
X017327Y006514D02*
X017617Y006320D01*
X017617Y006219D02*
X017617Y006026D01*
X017617Y006123D02*
X017327Y006123D01*
X017424Y006026D01*
X017376Y004666D02*
X017472Y004666D01*
X017521Y004617D01*
X017521Y004472D01*
X017617Y004472D02*
X017327Y004472D01*
X017327Y004617D01*
X017376Y004666D01*
X017521Y004569D02*
X017617Y004666D01*
X017617Y004371D02*
X017617Y004178D01*
X017327Y004178D01*
X017327Y004371D01*
X017472Y004274D02*
X017472Y004178D01*
X017376Y004076D02*
X017327Y004028D01*
X017327Y003883D01*
X017617Y003883D01*
X017617Y004028D01*
X017569Y004076D01*
X017376Y004076D01*
X017424Y003782D02*
X017327Y003685D01*
X017424Y003588D01*
X017617Y003588D01*
X017617Y003487D02*
X017617Y003294D01*
X017327Y003294D01*
X017327Y003487D01*
X017472Y003390D02*
X017472Y003294D01*
X017472Y003193D02*
X017472Y002999D01*
X017617Y002999D02*
X017327Y002999D01*
X017327Y003193D02*
X017617Y003193D01*
X017666Y002898D02*
X017666Y002704D01*
X017617Y002555D02*
X017327Y002555D01*
X017472Y002410D01*
X017472Y002603D01*
X017376Y002309D02*
X017569Y002115D01*
X017617Y002163D01*
X017617Y002260D01*
X017569Y002309D01*
X017376Y002309D01*
X017327Y002260D01*
X017327Y002163D01*
X017376Y002115D01*
X017569Y002115D01*
X017617Y002014D02*
X017327Y001820D01*
X017327Y002014D02*
X017617Y001820D01*
X017617Y001719D02*
X017617Y001526D01*
X017617Y001623D02*
X017327Y001623D01*
X017424Y001526D01*
X017472Y003588D02*
X017472Y003782D01*
X017424Y003782D02*
X017617Y003782D01*
X018999Y004010D02*
X019386Y004010D01*
X019337Y004058D02*
X019289Y004106D01*
X019241Y004106D01*
X019192Y004058D01*
X019192Y003961D01*
X019144Y003913D01*
X019096Y003913D01*
X019047Y003961D01*
X019047Y004058D01*
X019096Y004106D01*
X019144Y004208D02*
X019047Y004304D01*
X019337Y004304D01*
X019337Y004208D02*
X019337Y004401D01*
X019289Y004502D02*
X019337Y004551D01*
X019337Y004647D01*
X019289Y004696D01*
X019241Y004696D01*
X019192Y004647D01*
X019192Y004502D01*
X019289Y004502D01*
X019192Y004502D02*
X019096Y004599D01*
X019047Y004696D01*
X019337Y004058D02*
X019337Y003961D01*
X019289Y003913D01*
X019289Y003812D02*
X019047Y003812D01*
X019047Y003618D02*
X019289Y003618D01*
X019337Y003667D01*
X019337Y003764D01*
X019289Y003812D01*
X019289Y008118D02*
X019047Y008118D01*
X019047Y008312D02*
X019289Y008312D01*
X019337Y008264D01*
X019337Y008167D01*
X019289Y008118D01*
X019289Y008413D02*
X019337Y008461D01*
X019337Y008558D01*
X019289Y008606D01*
X019241Y008606D01*
X019192Y008558D01*
X019192Y008461D01*
X019144Y008413D01*
X019096Y008413D01*
X019047Y008461D01*
X019047Y008558D01*
X019096Y008606D01*
X019144Y008708D02*
X019047Y008804D01*
X019337Y008804D01*
X019337Y008708D02*
X019337Y008901D01*
X019289Y009002D02*
X019337Y009051D01*
X019337Y009147D01*
X019289Y009196D01*
X019192Y009196D01*
X019144Y009147D01*
X019144Y009099D01*
X019192Y009002D01*
X019047Y009002D01*
X019047Y009196D01*
X018999Y008510D02*
X019386Y008510D01*
X017617Y008678D02*
X017617Y008871D01*
X017617Y008972D02*
X017327Y008972D01*
X017327Y009117D01*
X017376Y009166D01*
X017472Y009166D01*
X017521Y009117D01*
X017521Y008972D01*
X017521Y009069D02*
X017617Y009166D01*
X017327Y008871D02*
X017327Y008678D01*
X017617Y008678D01*
X017472Y008678D02*
X017472Y008774D01*
X002386Y008510D02*
X001999Y008510D01*
X002047Y008558D02*
X002096Y008606D01*
X002047Y008558D02*
X002047Y008461D01*
X002096Y008413D01*
X002144Y008413D01*
X002192Y008461D01*
X002192Y008558D01*
X002241Y008606D01*
X002289Y008606D01*
X002337Y008558D01*
X002337Y008461D01*
X002289Y008413D01*
X002289Y008312D02*
X002047Y008312D01*
X002047Y008118D02*
X002289Y008118D01*
X002337Y008167D01*
X002337Y008264D01*
X002289Y008312D01*
X002337Y008708D02*
X002337Y008901D01*
X002337Y008804D02*
X002047Y008804D01*
X002144Y008708D01*
X002192Y009002D02*
X002192Y009196D01*
X002047Y009147D02*
X002192Y009002D01*
X002337Y009147D02*
X002047Y009147D01*
D14*
X001812Y009002D02*
X001562Y009252D01*
X001062Y009252D01*
X000812Y009002D01*
X000812Y008502D01*
X001062Y008252D01*
X000812Y008002D01*
X000812Y007502D01*
X001062Y007252D01*
X000812Y007002D01*
X000812Y006502D01*
X001062Y006252D01*
X000812Y006002D01*
X000812Y005502D01*
X001062Y005252D01*
X000812Y005002D01*
X000812Y004502D01*
X001062Y004252D01*
X000812Y004002D01*
X000812Y003502D01*
X001062Y003252D01*
X000812Y003002D01*
X000812Y002502D01*
X001062Y002252D01*
X000812Y002002D01*
X000812Y001502D01*
X001062Y001252D01*
X001562Y001252D01*
X001812Y001502D01*
X001812Y002002D01*
X001562Y002252D01*
X001812Y002502D01*
X001812Y003002D01*
X001562Y003252D01*
X001812Y003502D01*
X001812Y004002D01*
X001562Y004252D01*
X001812Y004502D01*
X001812Y005002D01*
X001562Y005252D01*
X001062Y005252D01*
X001562Y005252D01*
X001812Y005502D01*
X001812Y006002D01*
X001562Y006252D01*
X001812Y006502D01*
X001812Y007002D01*
X001562Y007252D01*
X001812Y007502D01*
X001812Y008002D01*
X001562Y008252D01*
X001812Y008502D01*
X001812Y009002D01*
X001562Y009752D02*
X001062Y009752D01*
X000812Y010002D01*
X000812Y010502D01*
X001062Y010752D01*
X000812Y011002D01*
X000812Y011502D01*
X001062Y011752D01*
X000812Y012002D01*
X000812Y012502D01*
X001062Y012752D01*
X000812Y013002D01*
X000812Y013502D01*
X001062Y013752D01*
X001562Y013752D01*
X001812Y013502D01*
X001812Y013002D01*
X001562Y012752D01*
X001812Y012502D01*
X001812Y012002D01*
X001562Y011752D01*
X001812Y011502D01*
X001812Y011002D01*
X001562Y010752D01*
X001812Y010502D01*
X001812Y010002D01*
X001562Y009752D01*
X004812Y008502D02*
X004812Y008002D01*
X005062Y007752D01*
X004812Y007502D01*
X004812Y007002D01*
X005062Y006752D01*
X004812Y006502D01*
X004812Y006002D01*
X005062Y005752D01*
X005562Y005752D01*
X005812Y006002D01*
X005812Y006502D01*
X005562Y006752D01*
X005812Y007002D01*
X005812Y007502D01*
X005562Y007752D01*
X005812Y008002D01*
X005812Y008502D01*
X005562Y008752D01*
X005062Y008752D01*
X004812Y008502D01*
X004562Y001752D02*
X005062Y001752D01*
X005312Y001502D01*
X005562Y001752D01*
X006062Y001752D01*
X006312Y001502D01*
X006562Y001752D01*
X007062Y001752D01*
X007312Y001502D01*
X007312Y001002D01*
X007062Y000752D01*
X006562Y000752D01*
X006312Y001002D01*
X006062Y000752D01*
X005562Y000752D01*
X005312Y001002D01*
X005062Y000752D01*
X004562Y000752D01*
X004312Y001002D01*
X004062Y000752D01*
X003562Y000752D01*
X003312Y001002D01*
X003062Y000752D01*
X002562Y000752D01*
X002312Y001002D01*
X002312Y001502D01*
X002562Y001752D01*
X003062Y001752D01*
X003312Y001502D01*
X003562Y001752D01*
X004062Y001752D01*
X004312Y001502D01*
X004562Y001752D01*
X012762Y006052D02*
X012762Y006452D01*
X012328Y006752D02*
X012330Y006814D01*
X012336Y006877D01*
X012346Y006938D01*
X012360Y006999D01*
X012377Y007059D01*
X012398Y007118D01*
X012424Y007175D01*
X012452Y007230D01*
X012484Y007284D01*
X012520Y007335D01*
X012558Y007385D01*
X012600Y007431D01*
X012644Y007475D01*
X012692Y007516D01*
X012741Y007554D01*
X012793Y007588D01*
X012847Y007619D01*
X012903Y007647D01*
X012961Y007671D01*
X013020Y007692D01*
X013080Y007708D01*
X013141Y007721D01*
X013203Y007730D01*
X013265Y007735D01*
X013328Y007736D01*
X013390Y007733D01*
X013452Y007726D01*
X013514Y007715D01*
X013574Y007700D01*
X013634Y007682D01*
X013692Y007660D01*
X013749Y007634D01*
X013804Y007604D01*
X013857Y007571D01*
X013908Y007535D01*
X013956Y007496D01*
X014002Y007453D01*
X014045Y007408D01*
X014085Y007360D01*
X014122Y007310D01*
X014156Y007257D01*
X014187Y007203D01*
X014213Y007147D01*
X014237Y007089D01*
X014256Y007029D01*
X014272Y006969D01*
X014284Y006907D01*
X014292Y006846D01*
X014296Y006783D01*
X014296Y006721D01*
X014292Y006658D01*
X014284Y006597D01*
X014272Y006535D01*
X014256Y006475D01*
X014237Y006415D01*
X014213Y006357D01*
X014187Y006301D01*
X014156Y006247D01*
X014122Y006194D01*
X014085Y006144D01*
X014045Y006096D01*
X014002Y006051D01*
X013956Y006008D01*
X013908Y005969D01*
X013857Y005933D01*
X013804Y005900D01*
X013749Y005870D01*
X013692Y005844D01*
X013634Y005822D01*
X013574Y005804D01*
X013514Y005789D01*
X013452Y005778D01*
X013390Y005771D01*
X013328Y005768D01*
X013265Y005769D01*
X013203Y005774D01*
X013141Y005783D01*
X013080Y005796D01*
X013020Y005812D01*
X012961Y005833D01*
X012903Y005857D01*
X012847Y005885D01*
X012793Y005916D01*
X012741Y005950D01*
X012692Y005988D01*
X012644Y006029D01*
X012600Y006073D01*
X012558Y006119D01*
X012520Y006169D01*
X012484Y006220D01*
X012452Y006274D01*
X012424Y006329D01*
X012398Y006386D01*
X012377Y006445D01*
X012360Y006505D01*
X012346Y006566D01*
X012336Y006627D01*
X012330Y006690D01*
X012328Y006752D01*
X017812Y006502D02*
X017812Y007002D01*
X018062Y007252D01*
X017812Y007502D01*
X017812Y008002D01*
X018062Y008252D01*
X017812Y008502D01*
X017812Y009002D01*
X018062Y009252D01*
X018562Y009252D01*
X018812Y009002D01*
X018812Y008502D01*
X018562Y008252D01*
X018812Y008002D01*
X018812Y007502D01*
X018562Y007252D01*
X018812Y007002D01*
X018812Y006502D01*
X018562Y006252D01*
X018812Y006002D01*
X018812Y005502D01*
X018562Y005252D01*
X018062Y005252D01*
X017812Y005502D01*
X017812Y006002D01*
X018062Y006252D01*
X017812Y006502D01*
X018062Y004752D02*
X017812Y004502D01*
X017812Y004002D01*
X018062Y003752D01*
X017812Y003502D01*
X017812Y003002D01*
X018062Y002752D01*
X017812Y002502D01*
X017812Y002002D01*
X018062Y001752D01*
X017812Y001502D01*
X017812Y001002D01*
X018062Y000752D01*
X018562Y000752D01*
X018812Y001002D01*
X018812Y001502D01*
X018562Y001752D01*
X018812Y002002D01*
X018812Y002502D01*
X018562Y002752D01*
X018812Y003002D01*
X018812Y003502D01*
X018562Y003752D01*
X018812Y004002D01*
X018812Y004502D01*
X018562Y004752D01*
X018062Y004752D01*
X008262Y016052D02*
X008262Y016452D01*
X007828Y016752D02*
X007830Y016814D01*
X007836Y016877D01*
X007846Y016938D01*
X007860Y016999D01*
X007877Y017059D01*
X007898Y017118D01*
X007924Y017175D01*
X007952Y017230D01*
X007984Y017284D01*
X008020Y017335D01*
X008058Y017385D01*
X008100Y017431D01*
X008144Y017475D01*
X008192Y017516D01*
X008241Y017554D01*
X008293Y017588D01*
X008347Y017619D01*
X008403Y017647D01*
X008461Y017671D01*
X008520Y017692D01*
X008580Y017708D01*
X008641Y017721D01*
X008703Y017730D01*
X008765Y017735D01*
X008828Y017736D01*
X008890Y017733D01*
X008952Y017726D01*
X009014Y017715D01*
X009074Y017700D01*
X009134Y017682D01*
X009192Y017660D01*
X009249Y017634D01*
X009304Y017604D01*
X009357Y017571D01*
X009408Y017535D01*
X009456Y017496D01*
X009502Y017453D01*
X009545Y017408D01*
X009585Y017360D01*
X009622Y017310D01*
X009656Y017257D01*
X009687Y017203D01*
X009713Y017147D01*
X009737Y017089D01*
X009756Y017029D01*
X009772Y016969D01*
X009784Y016907D01*
X009792Y016846D01*
X009796Y016783D01*
X009796Y016721D01*
X009792Y016658D01*
X009784Y016597D01*
X009772Y016535D01*
X009756Y016475D01*
X009737Y016415D01*
X009713Y016357D01*
X009687Y016301D01*
X009656Y016247D01*
X009622Y016194D01*
X009585Y016144D01*
X009545Y016096D01*
X009502Y016051D01*
X009456Y016008D01*
X009408Y015969D01*
X009357Y015933D01*
X009304Y015900D01*
X009249Y015870D01*
X009192Y015844D01*
X009134Y015822D01*
X009074Y015804D01*
X009014Y015789D01*
X008952Y015778D01*
X008890Y015771D01*
X008828Y015768D01*
X008765Y015769D01*
X008703Y015774D01*
X008641Y015783D01*
X008580Y015796D01*
X008520Y015812D01*
X008461Y015833D01*
X008403Y015857D01*
X008347Y015885D01*
X008293Y015916D01*
X008241Y015950D01*
X008192Y015988D01*
X008144Y016029D01*
X008100Y016073D01*
X008058Y016119D01*
X008020Y016169D01*
X007984Y016220D01*
X007952Y016274D01*
X007924Y016329D01*
X007898Y016386D01*
X007877Y016445D01*
X007860Y016505D01*
X007846Y016566D01*
X007836Y016627D01*
X007830Y016690D01*
X007828Y016752D01*
X012312Y018502D02*
X012562Y018252D01*
X013062Y018252D01*
X013312Y018502D01*
X013562Y018252D01*
X014062Y018252D01*
X014312Y018502D01*
X014562Y018252D01*
X015062Y018252D01*
X015312Y018502D01*
X015312Y019002D01*
X015062Y019252D01*
X014562Y019252D01*
X014312Y019002D01*
X014062Y019252D01*
X013562Y019252D01*
X013312Y019002D01*
X013062Y019252D01*
X012562Y019252D01*
X012312Y019002D01*
X012312Y018502D01*
X015812Y018502D02*
X016062Y018252D01*
X016562Y018252D01*
X016812Y018502D01*
X017062Y018252D01*
X017562Y018252D01*
X017812Y018502D01*
X018062Y018252D01*
X018562Y018252D01*
X018812Y018502D01*
X018812Y019002D01*
X018562Y019252D01*
X018062Y019252D01*
X017812Y019002D01*
X017562Y019252D01*
X017062Y019252D01*
X016812Y019002D01*
X016562Y019252D01*
X016062Y019252D01*
X015812Y019002D01*
X015812Y018502D01*
D15*
X011612Y018752D02*
X011610Y018696D01*
X011604Y018640D01*
X011594Y018585D01*
X011581Y018531D01*
X011563Y018477D01*
X011542Y018425D01*
X011518Y018375D01*
X011489Y018326D01*
X011458Y018280D01*
X011423Y018236D01*
X011386Y018194D01*
X011345Y018156D01*
X011302Y018120D01*
X011257Y018087D01*
X011209Y018057D01*
X011612Y018752D02*
X011610Y018805D01*
X011605Y018859D01*
X011596Y018911D01*
X011584Y018963D01*
X011568Y019014D01*
X011549Y019064D01*
X011526Y019113D01*
X011500Y019160D01*
X011472Y019205D01*
X011440Y019248D01*
X011406Y019288D01*
X011368Y019327D01*
X011329Y019363D01*
X010012Y018752D02*
X010014Y018698D01*
X010019Y018644D01*
X010028Y018591D01*
X010041Y018538D01*
X010057Y018487D01*
X010077Y018437D01*
X010100Y018388D01*
X010126Y018340D01*
X010155Y018295D01*
X010188Y018252D01*
X010223Y018211D01*
X010261Y018172D01*
X010301Y018136D01*
X010344Y018103D01*
X010389Y018073D01*
X010436Y018046D01*
X010012Y018752D02*
X010014Y018806D01*
X010019Y018859D01*
X010028Y018913D01*
X010041Y018965D01*
X010057Y019016D01*
X010077Y019067D01*
X010099Y019116D01*
X010125Y019163D01*
X010155Y019208D01*
X010187Y019251D01*
X010222Y019292D01*
X010260Y019331D01*
X010300Y019367D01*
X014012Y007752D02*
X014014Y007698D01*
X014019Y007644D01*
X014028Y007591D01*
X014041Y007538D01*
X014057Y007487D01*
X014077Y007437D01*
X014100Y007388D01*
X014126Y007340D01*
X014155Y007295D01*
X014188Y007252D01*
X014223Y007211D01*
X014261Y007172D01*
X014301Y007136D01*
X014344Y007103D01*
X014389Y007073D01*
X014436Y007046D01*
X015209Y007057D02*
X015257Y007087D01*
X015302Y007120D01*
X015345Y007156D01*
X015386Y007194D01*
X015423Y007236D01*
X015458Y007280D01*
X015489Y007326D01*
X015518Y007375D01*
X015542Y007425D01*
X015563Y007477D01*
X015581Y007531D01*
X015594Y007585D01*
X015604Y007640D01*
X015610Y007696D01*
X015612Y007752D01*
X015610Y007805D01*
X015605Y007859D01*
X015596Y007911D01*
X015584Y007963D01*
X015568Y008014D01*
X015549Y008064D01*
X015526Y008113D01*
X015500Y008160D01*
X015472Y008205D01*
X015440Y008248D01*
X015406Y008288D01*
X015368Y008327D01*
X015329Y008363D01*
X014300Y008367D02*
X014260Y008331D01*
X014222Y008292D01*
X014187Y008251D01*
X014155Y008208D01*
X014125Y008163D01*
X014099Y008116D01*
X014077Y008067D01*
X014057Y008016D01*
X014041Y007965D01*
X014028Y007913D01*
X014019Y007859D01*
X014014Y007806D01*
X014012Y007752D01*
X015512Y006752D02*
X015514Y006698D01*
X015519Y006644D01*
X015528Y006591D01*
X015541Y006538D01*
X015557Y006487D01*
X015577Y006437D01*
X015600Y006388D01*
X015626Y006340D01*
X015655Y006295D01*
X015688Y006252D01*
X015723Y006211D01*
X015761Y006172D01*
X015801Y006136D01*
X015844Y006103D01*
X015889Y006073D01*
X015936Y006046D01*
X016709Y006057D02*
X016757Y006087D01*
X016802Y006120D01*
X016845Y006156D01*
X016886Y006194D01*
X016923Y006236D01*
X016958Y006280D01*
X016989Y006326D01*
X017018Y006375D01*
X017042Y006425D01*
X017063Y006477D01*
X017081Y006531D01*
X017094Y006585D01*
X017104Y006640D01*
X017110Y006696D01*
X017112Y006752D01*
X017110Y006805D01*
X017105Y006859D01*
X017096Y006911D01*
X017084Y006963D01*
X017068Y007014D01*
X017049Y007064D01*
X017026Y007113D01*
X017000Y007160D01*
X016972Y007205D01*
X016940Y007248D01*
X016906Y007288D01*
X016868Y007327D01*
X016829Y007363D01*
X015800Y007367D02*
X015760Y007331D01*
X015722Y007292D01*
X015687Y007251D01*
X015655Y007208D01*
X015625Y007163D01*
X015599Y007116D01*
X015577Y007067D01*
X015557Y007016D01*
X015541Y006965D01*
X015528Y006913D01*
X015519Y006859D01*
X015514Y006806D01*
X015512Y006752D01*
X005912Y003552D02*
X005912Y003252D01*
X005912Y002952D01*
X005712Y002952D02*
X005712Y003252D01*
X005712Y003552D01*
D16*
X014012Y015132D02*
X014612Y015132D01*
X014612Y015382D02*
X014012Y015382D01*
X008942Y018452D02*
X008942Y019052D01*
X008692Y019052D02*
X008692Y018452D01*
D17*
X006772Y015432D03*
D18*
X005562Y015527D03*
X005562Y018977D03*
D19*
X005462Y018252D03*
X005462Y017252D03*
X005462Y016252D03*
D20*
X005562Y016752D03*
X005562Y017752D03*
D21*
X005554Y017800D02*
X005478Y017877D01*
X005478Y018030D01*
X005554Y018107D01*
X005631Y018261D02*
X005478Y018414D01*
X005938Y018414D01*
X005938Y018261D02*
X005938Y018567D01*
X005861Y018721D02*
X005554Y019028D01*
X005861Y019028D01*
X005938Y018951D01*
X005938Y018798D01*
X005861Y018721D01*
X005554Y018721D01*
X005478Y018798D01*
X005478Y018951D01*
X005554Y019028D01*
X005785Y018107D02*
X005708Y018030D01*
X005708Y017877D01*
X005631Y017800D01*
X005554Y017800D01*
X005478Y017647D02*
X005861Y017647D01*
X005938Y017570D01*
X005938Y017417D01*
X005861Y017340D01*
X005478Y017340D01*
X005861Y017800D02*
X005938Y017877D01*
X005938Y018030D01*
X005861Y018107D01*
X005785Y018107D01*
X006015Y017954D02*
X005401Y017954D01*
X001188Y017877D02*
X001188Y018030D01*
X001111Y018107D01*
X000728Y018107D01*
X000804Y018261D02*
X000728Y018337D01*
X000728Y018491D01*
X000804Y018568D01*
X000728Y018721D02*
X000728Y018951D01*
X000804Y019028D01*
X000881Y019028D01*
X000958Y018951D01*
X000958Y018721D01*
X001035Y018568D02*
X000958Y018491D01*
X000958Y018337D01*
X000881Y018261D01*
X000804Y018261D01*
X001111Y018261D02*
X001188Y018337D01*
X001188Y018491D01*
X001111Y018568D01*
X001035Y018568D01*
X001188Y018721D02*
X001188Y018951D01*
X001111Y019028D01*
X001035Y019028D01*
X000958Y018951D01*
X001188Y018721D02*
X000728Y018721D01*
X000728Y017800D02*
X001111Y017800D01*
X001188Y017877D01*
X012332Y017632D02*
X012332Y017282D01*
X012332Y017399D02*
X012508Y017399D01*
X012566Y017457D01*
X012566Y017574D01*
X012508Y017632D01*
X012332Y017632D01*
X012449Y017399D02*
X012566Y017282D01*
X012692Y017340D02*
X012750Y017282D01*
X012867Y017282D01*
X012925Y017340D01*
X012925Y017457D01*
X012867Y017515D01*
X012808Y017515D01*
X012692Y017457D01*
X012692Y017632D01*
X012925Y017632D01*
X016932Y015306D02*
X016932Y015189D01*
X016991Y015131D01*
X016991Y015005D02*
X017107Y015005D01*
X017166Y014947D01*
X017166Y014772D01*
X017282Y014772D02*
X016932Y014772D01*
X016932Y014947D01*
X016991Y015005D01*
X017166Y014889D02*
X017282Y015005D01*
X017282Y015131D02*
X017049Y015365D01*
X016991Y015365D01*
X016932Y015306D01*
X017282Y015365D02*
X017282Y015131D01*
X019342Y016054D02*
X019342Y016229D01*
X019401Y016287D01*
X019517Y016287D01*
X019576Y016229D01*
X019576Y016054D01*
X019692Y016054D02*
X019342Y016054D01*
X019576Y016171D02*
X019692Y016287D01*
X019692Y016413D02*
X019692Y016646D01*
X019692Y016530D02*
X019342Y016530D01*
X019459Y016413D01*
X015782Y010806D02*
X015432Y010806D01*
X015607Y010631D01*
X015607Y010865D01*
X015607Y010505D02*
X015491Y010505D01*
X015432Y010447D01*
X015432Y010272D01*
X015782Y010272D01*
X015666Y010272D02*
X015666Y010447D01*
X015607Y010505D01*
X015666Y010389D02*
X015782Y010505D01*
X015634Y004646D02*
X015576Y004646D01*
X015517Y004588D01*
X015517Y004530D01*
X015517Y004588D02*
X015459Y004646D01*
X015401Y004646D01*
X015342Y004588D01*
X015342Y004471D01*
X015401Y004413D01*
X015401Y004287D02*
X015342Y004229D01*
X015342Y004054D01*
X015692Y004054D01*
X015576Y004054D02*
X015576Y004229D01*
X015517Y004287D01*
X015401Y004287D01*
X015576Y004171D02*
X015692Y004287D01*
X015634Y004413D02*
X015692Y004471D01*
X015692Y004588D01*
X015634Y004646D01*
D22*
X014812Y004827D03*
X014812Y002677D03*
X016312Y010177D03*
X016312Y012327D03*
X017812Y014677D03*
X018812Y014677D03*
X018812Y016827D03*
X017812Y016827D03*
D23*
X014387Y016752D03*
X012237Y016752D03*
M02*
